<svg width="30" height="30" viewBox="0 0 30 30" fill="none" xmlns="http://www.w3.org/2000/svg">
<path d="M18.571 21.3521C20.9392 21.0712 23.2229 20.5145 25.3889 19.7148C23.5929 17.7213 22.4997 15.082 22.4997 12.1875V11.3115C22.4999 11.291 22.5 11.2705 22.5 11.25C22.5 7.10786 19.1421 3.75 15 3.75C10.8578 3.75 7.49997 7.10786 7.49997 11.25L7.49972 12.1875C7.49972 15.082 6.40656 17.7213 4.61057 19.7148C6.77672 20.5145 9.06051 21.0713 11.4289 21.3522M18.571 21.3521C17.3999 21.491 16.2082 21.5625 14.9997 21.5625C13.7914 21.5625 12.5998 21.4911 11.4289 21.3522M18.571 21.3521C18.6872 21.7139 18.75 22.0996 18.75 22.5C18.75 24.5711 17.071 26.25 15 26.25C12.9289 26.25 11.25 24.5711 11.25 22.5C11.25 22.0996 11.3127 21.7139 11.4289 21.3522M3.90552 9.375C4.26462 7.23455 5.22814 5.29905 6.61457 3.75M23.3854 3.75C24.7718 5.29905 25.7353 7.23455 26.0944 9.375" stroke="#4B05AD" stroke-width="1.5" stroke-linecap="round" stroke-linejoin="round"/>
</svg>
