<svg width="15" height="16" viewBox="0 0 15 16" fill="none" xmlns="http://www.w3.org/2000/svg">
<path fill-rule="evenodd" clip-rule="evenodd" d="M4.68756 4.25V4.71875H3.44561C2.84589 4.71875 2.34295 5.17153 2.28017 5.76795L1.4907 13.2679C1.41786 13.9599 1.96039 14.5625 2.65613 14.5625H12.3441C13.0398 14.5625 13.5824 13.9599 13.5095 13.2679L12.72 5.76795C12.6573 5.17153 12.1543 4.71875 11.5546 4.71875H10.3126V4.25C10.3126 2.6967 9.05336 1.4375 7.50006 1.4375C5.94676 1.4375 4.68756 2.6967 4.68756 4.25ZM7.50006 2.375C6.46453 2.375 5.62506 3.21447 5.62506 4.25V4.71875H9.37506V4.25C9.37506 3.21447 8.5356 2.375 7.50006 2.375ZM5.62506 7.53125C5.62506 8.56678 6.46453 9.40625 7.50006 9.40625C8.5356 9.40625 9.37506 8.56678 9.37506 7.53125V7.0625C9.37506 6.80362 9.58493 6.59375 9.84381 6.59375C10.1027 6.59375 10.3126 6.80362 10.3126 7.0625V7.53125C10.3126 9.08455 9.05336 10.3438 7.50006 10.3438C5.94676 10.3438 4.68756 9.08455 4.68756 7.53125V7.0625C4.68756 6.80362 4.89743 6.59375 5.15631 6.59375C5.4152 6.59375 5.62506 6.80362 5.62506 7.0625V7.53125Z" fill="#4B05AD"/>
</svg>
