<svg width="56" height="58" viewBox="0 0 56 58" fill="none" xmlns="http://www.w3.org/2000/svg">
<path d="M42.5891 53.6308C42.821 54.0512 42.6687 54.5812 42.2416 54.8004C37.3109 57.3311 31.7519 58.3986 26.2231 57.8667C20.4055 57.3071 14.8927 55.0027 10.4074 51.2557C5.92215 47.5087 2.6737 42.4938 1.08791 36.8686C-0.497882 31.2434 -0.347012 25.2703 1.52074 19.7323C3.3885 14.1943 6.88597 9.34987 11.5547 5.83406C16.2234 2.31824 21.8455 0.295111 27.6839 0.0298783C33.5224 -0.235355 39.3047 1.26969 44.273 4.34771C48.9947 7.27295 52.7716 11.4891 55.1625 16.4891C55.3696 16.9222 55.1698 17.4362 54.7307 17.6302C54.2916 17.8243 53.7796 17.6248 53.5717 17.1921C51.3229 12.5125 47.7812 8.56625 43.3574 5.82554C38.687 2.93203 33.2513 1.51721 27.7628 1.76655C22.2744 2.01588 16.9893 3.91773 12.6005 7.22278C8.21164 10.5278 4.92383 15.0819 3.16804 20.2879C1.41225 25.4939 1.27043 31.1089 2.76115 36.3969C4.25188 41.6849 7.30559 46.3991 11.522 49.9215C15.7384 53.4439 20.9207 55.6102 26.3895 56.1363C31.5696 56.6346 36.7778 55.6394 41.4015 53.2775C41.829 53.0591 42.3572 53.2105 42.5891 53.6308Z" fill="#1E7ED9"/>
</svg>
