<svg width="50" height="51" viewBox="0 0 50 51" fill="none" xmlns="http://www.w3.org/2000/svg">
<path d="M39.8397 38.8985L40.0574 39.2794L40.4167 39.0275C41.3527 38.371 42.2174 37.6202 42.9976 36.7887L43.2083 36.5642L43.0451 36.303L40.5738 32.349C36.0837 25.1649 27.9978 20.7055 19.4683 20.7055C16.9863 20.7055 14.7915 22.3861 14.4135 24.6832L14.4135 24.6832C13.9088 27.7523 16.2906 30.2945 19.1406 30.2945C24.9395 30.2945 30.3452 33.6143 32.9104 38.7443L34.2283 41.3801L34.3691 41.6618L34.6761 41.5909C35.7668 41.3389 36.816 40.978 37.8124 40.5216L38.2102 40.3393L37.9931 39.9595L35.8466 36.2031C32.695 30.6877 26.9599 27.1125 20.6352 26.6226C20.0172 26.5747 19.5406 26.0808 19.5406 25.5C19.5406 24.9042 20.0192 24.4458 20.5777 24.4833C27.691 24.9604 34.1582 28.9557 37.6957 35.1464L39.8397 38.8985ZM46.6803 27.0935L47.3148 28.0301L47.4101 26.9028C47.4492 26.4408 47.4703 25.9732 47.4703 25.5C47.4703 20.9833 45.6466 16.8848 42.6993 13.9014L42.4462 13.6452L42.165 13.8701C40.6116 15.1118 38.9482 16.1994 37.1909 17.1222L36.5804 17.4428L37.1618 17.8136C40.9127 20.2058 44.1558 23.3665 46.6803 27.0935ZM40.3665 12.5731L40.8015 12.2397L40.3512 11.9271C39.3898 11.2596 38.3544 10.6914 37.2595 10.2377L37.0516 10.1515L36.87 10.2845C32.8481 13.2304 27.9037 14.8461 22.853 14.8461L19.6693 14.8461C19.6602 14.8461 19.6522 14.8464 19.6457 14.8467L19.6406 14.8467L19.6255 14.8467L19.6255 14.8467L19.6207 14.8467C13.8787 14.8704 8.9947 19.1088 8.52695 24.5623L8.52695 24.5623C7.97227 31.0324 13.1538 36.2177 19.2555 36.1533C21.186 36.1329 23.0488 36.7689 24.645 38.0007C25.9065 38.9743 26.931 40.2929 27.5912 41.7759L27.6969 42.0133L27.9566 42.0133L30.957 42.0133C31.1487 42.0133 31.3381 42.0088 31.5249 42.0025L32.1478 41.9814L31.8691 41.4238L31.0055 39.6967L30.6478 39.8756L31.0055 39.6967C28.7949 35.2756 24.1382 32.4242 19.1406 32.4242C14.8923 32.4242 11.6082 28.6159 12.3121 24.3376C12.8493 21.0718 15.9137 18.5758 19.4683 18.5758C24.0253 18.5758 28.5515 19.7414 32.5563 21.947L32.7492 21.5966L32.5563 21.947C36.5742 24.1596 39.9711 27.3667 42.3796 31.2203L44.2751 34.2529L44.6135 34.7945L44.9531 34.2536C45.5779 33.258 46.0997 32.1915 46.5031 31.0686L46.5687 30.886L46.4659 30.7214L45.5421 29.2428L45.542 29.2428C42.6284 24.5814 38.5426 20.7921 33.7253 18.2858C32.923 17.8683 32.9735 16.7039 33.809 16.3575C36.1577 15.3835 38.3565 14.1138 40.3665 12.5731ZM33.5309 9.91054L34.5433 9.33764L33.3926 9.16674C32.5976 9.04866 31.7844 8.98682 30.957 8.98682L19.1406 8.98682C9.98322 8.98682 2.52969 16.392 2.52969 25.5001C2.52969 34.6082 9.98332 42.0134 19.1406 42.0134L24.6158 42.0134L25.3772 42.0134L24.9452 41.3864C23.6335 39.4827 21.5201 38.2593 19.2781 38.2829C11.7752 38.3623 5.75638 31.9448 6.40518 24.3804C6.95938 17.9184 12.6692 12.815 19.4739 12.7187L19.6085 12.7168C19.6137 12.7168 19.619 12.7169 19.6242 12.7169L19.6265 12.7169C19.6376 12.7169 19.6482 12.7167 19.6547 12.7166L19.6693 12.7164L22.853 12.7164C26.6138 12.7164 30.3079 11.7342 33.5309 9.91054ZM19.1406 44.143C8.80541 44.143 0.4 35.7775 0.399999 25.5C0.399999 15.2225 8.80541 6.85703 19.1406 6.85703L30.957 6.85703C41.2364 6.85703 49.6 15.2206 49.6 25.5C49.6 35.7794 41.2364 44.143 30.957 44.143L19.1406 44.143Z" fill="black" stroke="#0F5AAB" stroke-width="0.8"/>
</svg>
