<svg width="21" height="21" viewBox="0 0 21 21" fill="none" xmlns="http://www.w3.org/2000/svg">
<path d="M8.73242 6.7657C9.70873 5.91143 11.2916 5.91143 12.268 6.7657C13.2443 7.61998 13.2443 9.00502 12.268 9.8593C12.098 10.008 11.9097 10.1308 11.7094 10.2277C11.088 10.5285 10.5002 11.0596 10.5002 11.75V12.375M18 10.5C18 14.6421 14.6421 18 10.5 18C6.35786 18 3 14.6421 3 10.5C3 6.35786 6.35786 3 10.5 3C14.6421 3 18 6.35786 18 10.5ZM10.5 14.875H10.5063V14.8813H10.5V14.875Z" stroke="#4B05AD" stroke-width="1.5" stroke-linecap="round" stroke-linejoin="round"/>
</svg>
