<svg width="21" height="20" viewBox="0 0 21 20" fill="none" xmlns="http://www.w3.org/2000/svg">
<path d="M8.73242 6.2657C9.70873 5.41143 11.2916 5.41143 12.268 6.2657C13.2443 7.11998 13.2443 8.50502 12.268 9.3593C12.098 9.50798 11.9097 9.63079 11.7094 9.72772C11.088 10.0285 10.5002 10.5596 10.5002 11.25V11.875M18 10C18 14.1421 14.6421 17.5 10.5 17.5C6.35786 17.5 3 14.1421 3 10C3 5.85786 6.35786 2.5 10.5 2.5C14.6421 2.5 18 5.85786 18 10ZM10.5 14.375H10.5063V14.3813H10.5V14.375Z" stroke="#4B05AD" stroke-width="1.5" stroke-linecap="round" stroke-linejoin="round"/>
</svg>
