<svg width="21" height="20" viewBox="0 0 21 20" fill="none" xmlns="http://www.w3.org/2000/svg">
<path d="M12.8805 14.2348C14.4593 14.0475 15.9817 13.6763 17.4258 13.1432C16.2284 11.8142 15.4997 10.0547 15.4997 8.125V7.54099C15.4998 7.52734 15.4998 7.51368 15.4998 7.5C15.4998 4.73858 13.2612 2.5 10.4998 2.5C7.73839 2.5 5.49982 4.73858 5.49982 7.5L5.49965 8.125C5.49965 10.0547 4.77088 11.8142 3.57355 13.1432C5.01765 13.6763 6.54018 14.0475 8.1191 14.2348M12.8805 14.2348C12.0998 14.3274 11.3053 14.375 10.4997 14.375C9.69412 14.375 8.89972 14.3274 8.1191 14.2348M12.8805 14.2348C12.958 14.4759 12.9998 14.7331 12.9998 15C12.9998 16.3807 11.8805 17.5 10.4998 17.5C9.11911 17.5 7.99982 16.3807 7.99982 15C7.99982 14.7331 8.04164 14.476 8.1191 14.2348M3.10352 6.25C3.34292 4.82303 3.98526 3.5327 4.90955 2.5M16.0901 2.5C17.0144 3.5327 17.6567 4.82303 17.8961 6.25" stroke="#4B05AD" stroke-width="1.5" stroke-linecap="round" stroke-linejoin="round"/>
</svg>
